<svg width="31" height="38" viewBox="0 0 31 38" fill="none" xmlns="http://www.w3.org/2000/svg">
<path fill-rule="evenodd" clip-rule="evenodd" d="M19.1843 19.4241L30.237 6.19946C31.2544 4.98211 31.2544 3.00841 30.237 1.79124C29.2196 0.573889 27.5702 0.573889 26.5528 1.79124L15.5 15.0161L4.44717 1.79106C3.42976 0.573715 1.78036 0.573715 0.762949 1.79106C-0.254316 3.00841 -0.254316 4.98211 0.762949 6.19929L11.8158 19.424L0.762949 32.6488C-0.254316 33.8662 -0.254316 35.8399 0.762949 37.057C1.78036 38.2744 3.42976 38.2744 4.44717 37.057L15.5 23.8322L26.5528 37.057C27.57 38.2744 29.2196 38.2744 30.237 37.057C31.2544 35.8397 31.2544 33.8662 30.237 32.6488L19.1843 19.4241Z" fill="white"/>
</svg>
