<svg width="31" height="31" viewBox="0 0 31 31" fill="none" xmlns="http://www.w3.org/2000/svg">
<g clip-path="url(#clip0)">
<path fill-rule="evenodd" clip-rule="evenodd" d="M19.1843 15.5001L30.237 4.44742C31.2544 3.43001 31.2544 1.78047 30.237 0.763203C29.2196 -0.254207 27.5702 -0.254207 26.5528 0.763203L15.5 11.816L4.44717 0.763057C3.42976 -0.254352 1.78036 -0.254352 0.762948 0.763057C-0.254316 1.78047 -0.254316 3.43001 0.762948 4.44727L11.8157 15.4999L0.762948 26.5527C-0.254316 27.5701 -0.254316 29.2197 0.762948 30.2369C1.78036 31.2544 3.42976 31.2544 4.44717 30.2369L15.5 19.1841L26.5528 30.2369C27.57 31.2544 29.2196 31.2544 30.237 30.2369C31.2544 29.2195 31.2544 27.5701 30.237 26.5527L19.1843 15.5001Z" fill="#49BA49"/>
</g>
<defs>
<clipPath id="clip0">
<rect width="31" height="31" fill="white" transform="translate(31 31) rotate(-180)"/>
</clipPath>
</defs>
</svg>
