<svg width="48" height="40" viewBox="0 0 48 40" fill="none" xmlns="http://www.w3.org/2000/svg">
<g clip-path="url(#clip0)">
<path d="M47 4.99999C47 3.99999 46.2 3.33333 45 3.33333H1C-0.2 3.33333 -1 3.99999 -1 4.99999V8.33333C-1 9.33333 -0.2 9.99999 1 9.99999H45C46.2 9.99999 47 9.33333 47 8.33333V4.99999Z" fill="white"/>
<path d="M47 18.3333C47 17.3333 46.2 16.6667 45 16.6667H1C-0.2 16.6667 -1 17.3333 -1 18.3333V21.6667C-1 22.6667 -0.2 23.3333 1 23.3333H45C46.2 23.3333 47 22.6667 47 21.6667V18.3333Z" fill="white"/>
<path d="M47 31.6667C47 30.6667 46.2 30 45 30H1C-0.2 30 -1 30.6667 -1 31.6667V35C-1 36 -0.2 36.6667 1 36.6667H45C46.2 36.6667 47 36 47 35V31.6667Z" fill="white"/>
</g>
<defs>
<clipPath id="clip0">
<rect width="48" height="40" fill="white"/>
</clipPath>
</defs>
</svg>
