<svg width="93" height="93" viewBox="0 0 93 93" fill="none" xmlns="http://www.w3.org/2000/svg">
<path d="M61.0312 5.8125H54.7189C53.5215 2.42962 50.2897 0 46.5 0C42.7102 0 39.4785 2.42962 38.2753 5.8125H31.9688C30.3645 5.8125 29.0625 7.1145 29.0625 8.71875V20.3438C29.0625 21.948 30.3645 23.25 31.9688 23.25H61.0312C62.6355 23.25 63.9375 21.948 63.9375 20.3438V8.71875C63.9375 7.1145 62.6355 5.8125 61.0312 5.8125Z" fill="#49BA49"/>
<path d="M75.5625 11.625H69.75V20.3438C69.75 25.1507 65.8382 29.0625 61.0312 29.0625H31.9688C27.1618 29.0625 23.25 25.1507 23.25 20.3438V11.625H17.4375C14.2348 11.625 11.625 14.2348 11.625 17.4375V87.1875C11.625 90.4483 14.1767 93 17.4375 93H75.5625C78.8233 93 81.375 90.4483 81.375 87.1875V17.4375C81.375 14.1767 78.8233 11.625 75.5625 11.625ZM45.6514 63.0889L34.0264 74.7139C33.4568 75.2777 32.7127 75.5625 31.9688 75.5625C31.2248 75.5625 30.4807 75.2777 29.9111 74.7139L24.0986 68.9014C22.9652 67.7679 22.9652 65.9254 24.0986 64.7919C25.2321 63.6585 27.0746 63.6585 28.2081 64.7919L31.9688 68.5468L41.5361 58.9794C42.6696 57.846 44.5121 57.846 45.6456 58.9794C46.779 60.1129 46.7848 61.9496 45.6514 63.0889ZM45.6514 39.8389L34.0264 51.4639C33.4568 52.0277 32.7127 52.3125 31.9688 52.3125C31.2248 52.3125 30.4807 52.0277 29.9111 51.4639L24.0986 45.6514C22.9652 44.5179 22.9652 42.6754 24.0986 41.5419C25.2321 40.4085 27.0746 40.4085 28.2081 41.5419L31.9688 45.2968L41.5361 35.7294C42.6696 34.596 44.5121 34.596 45.6456 35.7294C46.779 36.8629 46.7848 38.6996 45.6514 39.8389ZM66.8438 69.75H55.2188C53.6145 69.75 52.3125 68.448 52.3125 66.8438C52.3125 65.2395 53.6145 63.9375 55.2188 63.9375H66.8438C68.448 63.9375 69.75 65.2395 69.75 66.8438C69.75 68.448 68.448 69.75 66.8438 69.75ZM66.8438 46.5H55.2188C53.6145 46.5 52.3125 45.198 52.3125 43.5938C52.3125 41.9895 53.6145 40.6875 55.2188 40.6875H66.8438C68.448 40.6875 69.75 41.9895 69.75 43.5938C69.75 45.198 68.448 46.5 66.8438 46.5Z" fill="#49BA49"/>
</svg>
