<svg width="87" height="87" viewBox="0 0 87 87" fill="none" xmlns="http://www.w3.org/2000/svg">
<g clip-path="url(#clip0)">
<path d="M28.8595 73.8252C23.7094 67.5188 18.0954 64.7058 10.658 64.7058C8.6315 64.7058 6.40924 64.9195 4.0529 65.3397C3.61018 65.4187 3.15882 65.4585 2.71012 65.4585C1.77223 65.4585 0.858238 65.2893 0 64.9633C0.0165939 65.3736 0.035843 65.7738 0.0577469 66.1594C0.430115 72.5999 1.73838 79.3875 3.74226 85.273C4.09339 86.3058 5.0638 87.0001 6.15502 87.0001H32.2334V76.1994C30.9284 75.7394 29.7602 74.9277 28.8595 73.8252Z" fill="#49BA49"/>
<path d="M84.4512 18.0117H75.3112L78.6068 14.7162C79.6024 13.7212 79.6024 12.1069 78.6068 11.112C77.6118 10.1163 75.9976 10.1163 75.0026 11.112L67.3561 18.7578C67.297 18.8169 67.2406 18.8799 67.1869 18.945C67.163 18.9742 67.1424 19.0054 67.1198 19.0352C67.0926 19.0717 67.0641 19.1069 67.0388 19.1454C67.0143 19.1819 66.993 19.2198 66.9705 19.2569C66.9506 19.2908 66.9293 19.324 66.9101 19.3585C66.8895 19.397 66.8722 19.4368 66.8537 19.476C66.8371 19.5118 66.8185 19.5477 66.8032 19.5848C66.7873 19.6227 66.7747 19.6625 66.7607 19.701C66.7468 19.7408 66.7315 19.7793 66.7189 19.8198C66.707 19.859 66.6983 19.8994 66.6884 19.9393C66.6784 19.9798 66.6671 20.0202 66.6585 20.0621C66.6492 20.1085 66.6439 20.155 66.6373 20.2015C66.632 20.2373 66.6253 20.2725 66.622 20.3083C66.6054 20.4762 66.6054 20.6448 66.622 20.8121C66.6253 20.848 66.632 20.8831 66.6373 20.919C66.6439 20.9654 66.6492 21.0126 66.6585 21.059C66.6671 21.1002 66.6784 21.1407 66.6884 21.1818C66.6983 21.2216 66.707 21.2615 66.7189 21.3006C66.7315 21.3411 66.7468 21.3796 66.7607 21.4194C66.7747 21.4586 66.7873 21.4978 66.8032 21.5363C66.8185 21.5734 66.8371 21.6086 66.8537 21.6445C66.8722 21.6836 66.8895 21.7234 66.9101 21.7619C66.9293 21.7965 66.9506 21.8297 66.9705 21.8635C66.993 21.9013 67.0143 21.9392 67.0388 21.9757C67.0641 22.0135 67.0926 22.0494 67.1198 22.0859C67.1424 22.1157 67.163 22.1463 67.1869 22.1755C67.2406 22.2405 67.297 22.3036 67.3561 22.3626L75.0026 30.0091C75.4998 30.507 76.1522 30.7559 76.8047 30.7559C77.4572 30.7559 78.109 30.507 78.6068 30.0091C79.6024 29.0142 79.6024 27.3999 78.6068 26.4049L75.3112 23.1094H84.4512C85.8584 23.1094 87 21.9684 87 20.5605C87 19.1527 85.8584 18.0117 84.4512 18.0117Z" fill="#49BA49"/>
<path d="M65.5109 65.339C63.1552 64.9189 60.9329 64.7058 58.9065 64.7058C51.4684 64.7058 45.8544 67.5182 40.7049 73.8252C39.8036 74.9277 38.6353 75.7388 37.3311 76.1988V87.0001H63.4094C64.5006 87.0001 65.471 86.3058 65.8222 85.273C67.8261 79.3875 69.1343 72.5999 69.5067 66.1594C69.5286 65.7738 69.5485 65.3736 69.5644 64.9633C68.7062 65.2893 67.7922 65.4585 66.8543 65.4585C66.405 65.4585 65.9529 65.418 65.5109 65.339Z" fill="#49BA49"/>
<path d="M4.38147 42.6504H65.183C63.8428 39.1019 62.3925 35.211 61.2183 32.0482C58.6463 25.1159 58.6629 17.798 61.2675 10.8863C62.0845 8.71779 64.0387 3.87767 64.1734 3.55243C64.5079 2.77185 64.4316 1.87511 63.969 1.16158C63.4984 0.436752 62.6939 0 61.8303 0H7.73344C6.87056 0 6.06542 0.436752 5.59548 1.16158C5.13218 1.87511 5.05651 2.77185 5.39104 3.55243C5.52579 3.87767 7.47923 8.71779 8.29631 10.8863C10.9009 17.798 10.9182 25.1159 8.34609 32.0482C7.17191 35.211 5.7216 39.1019 4.38147 42.6504ZM34.7822 29.9062C36.19 29.9062 37.331 31.0472 37.331 32.4551C37.331 33.8629 36.19 35.0039 34.7822 35.0039C33.3744 35.0039 32.2334 33.8629 32.2334 32.4551C32.2334 31.0472 33.3744 29.9062 34.7822 29.9062Z" fill="#49BA49"/>
<path d="M66.4069 60.3209C67.0893 60.4431 67.7922 60.2811 68.3537 59.8729C68.9146 59.4647 69.285 58.8454 69.3792 58.1584L69.3845 58.1199C69.4111 57.9274 69.4157 57.7329 69.3971 57.5391C69.0812 54.1022 68.4261 51.0887 67.4503 48.5817C67.3475 48.3176 67.2393 48.0381 67.1271 47.748H2.43731C2.32514 48.0381 2.21695 48.3176 2.11406 48.5811C1.13768 51.0887 0.482548 54.1022 0.1666 57.5391C0.148678 57.7329 0.153324 57.9274 0.179875 58.1199L0.185185 58.1584C0.279438 58.8454 0.649815 59.4647 1.21069 59.8729C1.77156 60.2811 2.47448 60.4424 3.15749 60.3209C15.9879 58.0323 25.1325 61.2024 32.8075 70.6005C33.2921 71.1933 34.0169 71.5371 34.7822 71.5371C35.5475 71.5371 36.2723 71.1933 36.7562 70.6005C44.4312 61.2024 53.5765 58.033 66.4069 60.3209Z" fill="#49BA49"/>
</g>
<defs>
<clipPath id="clip0">
<rect width="87" height="87" fill="white"/>
</clipPath>
</defs>
</svg>
