<svg width="82" height="82" viewBox="0 0 82 82" fill="none" xmlns="http://www.w3.org/2000/svg">
<g clip-path="url(#clip0)">
<path d="M48.3236 4.09955C48.8535 4.926 50.0328 5.77935 51.7414 6.52884C52.9288 7.05061 54.3039 7.39283 55.9512 7.57613C60.6796 8.10166 67.5327 10.3745 67.8223 10.4728L68.3792 10.6586C63.2584 6.05587 56.9747 2.72944 50.0309 1.16101C49.6224 2.07755 49.0531 3.09668 48.3236 4.09955Z" fill="#49BA49"/>
<path d="M65.8955 22.1113H77.2993C77.2468 22.0099 77.1973 21.9073 77.1442 21.8066C77.0284 21.5914 76.9071 21.3806 76.7888 21.1679C76.5642 20.7668 76.339 20.3671 76.1019 19.9748C76.0418 19.8766 75.9786 19.7796 75.9186 19.682C74.9495 18.1117 73.8803 16.6096 72.7148 15.1894L66.8984 13.2487C66.8314 13.2268 60.0472 10.9777 55.629 10.4872C53.6846 10.2708 52.0286 9.85349 50.5671 9.2116C48.6634 8.37702 47.242 7.41356 46.3223 6.33875C46.413 6.44573 44.3072 7.71824 44.0638 7.84837C43.0716 8.38015 42.0299 8.88065 40.8731 8.84436C39.4943 8.80057 38.056 8.02417 36.9242 7.27467C36.4963 6.99189 36.0821 6.68284 35.6867 6.33875C34.7658 7.41231 33.3438 8.37702 31.44 9.2116C29.9792 9.85349 28.3244 10.2708 26.3781 10.4872C21.9606 10.9777 15.1776 13.2268 15.1088 13.2487L9.29238 15.1894C8.12872 16.6096 7.05954 18.1104 6.08982 19.6801C6.02851 19.7796 5.96532 19.8766 5.90589 19.976C5.66815 20.3683 5.44418 20.7681 5.21896 21.1697C5.10009 21.3818 4.97747 21.5926 4.86298 21.8079C4.80855 21.9073 4.76038 22.0112 4.70782 22.1125H16.1117C16.2743 22.1125 20.1332 22.1576 23.1405 26.1703C25.9151 29.8702 26.2699 35.1198 24.0427 39.5424C23.0967 41.4223 21.9675 44.2426 21.9675 47.0073C21.9675 47.1024 21.9587 47.2006 21.9381 47.2944C21.9137 47.4333 21.3162 51.0519 25.0618 55.1022C26.3487 56.4886 28.0154 57.7711 30.0142 58.9147C30.7155 59.3164 30.9602 60.211 30.5585 60.9123C30.2876 61.3853 29.7946 61.6506 29.286 61.6506C29.0401 61.6506 28.7911 61.5886 28.5615 61.4573C27.075 60.6077 25.76 59.6749 24.5988 58.682C21.8417 66.3815 21.7053 73.0369 22.2196 77.5764C22.391 77.664 22.5606 77.7534 22.7332 77.8398C26.6872 79.8149 30.9658 81.1474 35.3439 81.7512C35.454 81.7656 35.5635 81.7787 35.6748 81.7937L39.0738 71.5961C37.9828 71.3458 36.637 70.8991 35.6736 70.0965C35.053 69.5778 34.9691 68.6557 35.4859 68.035C36.0033 67.4138 36.9273 67.3318 37.548 67.8461C38.3487 68.5136 40.1412 68.874 41.0008 68.9628C41.9849 68.8621 43.6878 68.4886 44.4579 67.8461C45.0804 67.3275 46.0026 67.4107 46.5212 68.035C47.0399 68.6557 46.9548 69.5797 46.3336 70.0965C45.3701 70.8991 44.0244 71.3439 42.9339 71.5961L46.3323 81.7937C46.4424 81.7787 46.5532 81.7668 46.6633 81.7512C47.6311 81.6179 48.5902 81.4509 49.5405 81.25C52.9145 80.53 56.1902 79.3819 59.2739 77.8398C59.4453 77.7534 59.6149 77.6652 59.7863 77.5764C60.3006 73.0369 60.1642 66.3815 57.4071 58.682C56.2459 59.6736 54.9308 60.6077 53.4431 61.4573C53.2148 61.5886 52.9639 61.6506 52.718 61.6506C52.21 61.6506 51.7152 61.3853 51.4455 60.9123C51.0445 60.211 51.2891 59.3164 51.9904 58.9147C53.9905 57.773 55.6553 56.4898 56.9854 55.0578C60.6872 51.0382 60.091 47.4321 60.0647 47.2794C60.0497 47.1931 60.0384 47.0936 60.0384 47.006C60.0384 44.2414 58.9111 41.4223 57.9632 39.5424C55.736 35.1186 56.0908 29.8702 58.8666 26.1684C61.8746 22.1563 65.7328 22.1113 65.8955 22.1113ZM45.8243 12.2897L47.2883 10.8257C47.8594 10.2533 48.7879 10.2533 49.3591 10.8257C49.9315 11.3981 49.9315 12.3234 49.3591 12.8959L47.8945 14.3605C47.6092 14.6457 47.2345 14.7896 46.8597 14.7896C46.4843 14.7896 46.1096 14.6457 45.8243 14.3605C45.2519 13.788 45.2519 12.8621 45.8243 12.2897ZM32.6456 10.8257C33.2168 10.2533 34.1446 10.2533 34.7158 10.8257L36.1803 12.2897C36.7528 12.8621 36.7528 13.788 36.1803 14.3605C35.8944 14.6457 35.5197 14.7896 35.1449 14.7896C34.7702 14.7896 34.3954 14.6457 34.1095 14.3605L32.6456 12.8959C32.0731 12.3234 32.0731 11.3981 32.6456 10.8257ZM38.7692 32.7919C37.8176 33.3074 36.4656 33.8267 34.9047 33.8267C32.8721 33.8267 30.4828 32.9439 28.1442 30.021C27.6387 29.3885 27.7413 28.4676 28.3726 27.9621C29.0051 27.4572 29.926 27.5623 30.4315 28.1911C32.6012 30.9057 34.874 31.5688 37.3778 30.2143C38.0885 29.8265 38.9769 30.0961 39.3623 30.8062C39.7458 31.5194 39.4805 32.4065 38.7692 32.7919ZM42.4228 57.6091C42.2558 58.2753 41.6595 58.7189 41.0039 58.7189C40.885 58.7189 40.7668 58.7039 40.6479 58.6751C39.8628 58.4787 39.3854 57.6835 39.5818 56.9002C40.2982 54.0361 40.245 52.4133 40.0974 51.5874C40.0079 51.087 40.1762 50.5846 40.5541 50.2436C41.393 49.4835 42.7694 49.9095 42.9746 51.0225C43.2192 52.3638 43.2136 54.4459 42.4228 57.6091ZM53.8604 30.021C52.6142 31.5776 49.8539 33.8167 46.6163 33.8167C45.5328 33.8167 44.3979 33.5664 43.2467 32.9571C42.5323 32.5779 42.2601 31.6921 42.638 30.9776C43.0159 30.2625 43.8999 29.9891 44.6175 30.3682C48.2067 32.272 51.4411 28.3531 51.5763 28.188C52.0843 27.5611 53.0052 27.4629 53.6333 27.9684C54.2614 28.4751 54.364 29.3916 53.8604 30.021Z" fill="#49BA49"/>
<path d="M14.1816 10.4728C14.4718 10.3758 21.3249 8.10356 26.0527 7.57616C27.6987 7.39286 29.0751 7.05189 30.2613 6.52887C31.9717 5.77938 33.1504 4.92603 33.6791 4.09959C32.9502 3.09546 32.3803 2.07633 31.9705 1.15979C25.0267 2.7276 18.743 6.05465 13.6223 10.6573L14.1816 10.4728Z" fill="#49BA49"/>
<path d="M36.7515 3.28564C37.7044 4.34606 38.9012 5.17877 40.2219 5.71492C40.4721 5.81753 40.7355 5.90949 41.0064 5.90824C41.2616 5.90699 41.5075 5.8219 41.7446 5.72806C42.9471 5.25259 44.0463 4.52186 44.9572 3.60345C45.275 3.28251 47.0411 0.59734 47.0674 0.601719C46.1565 0.465334 45.2431 0.370239 44.3291 0.29579C44.1432 0.280775 43.9574 0.265135 43.7698 0.253248C41.926 0.127498 40.078 0.127498 38.2349 0.253248C38.0472 0.266386 37.8614 0.280775 37.6756 0.29579C36.7615 0.370239 35.8494 0.465334 34.9385 0.601719C35.3983 1.52138 35.997 2.44668 36.7515 3.28564Z" fill="#49BA49"/>
<path d="M78.7007 25.0398H65.9074C65.7478 25.0442 63.2785 25.1655 61.2096 27.9245C59.0969 30.7448 58.8491 34.7876 60.5783 38.2241C62.1392 41.3228 62.9419 44.2351 62.9657 46.8859C63.0927 47.7743 63.4387 51.9271 59.7043 56.3922C62.6842 64.0342 63.179 70.7934 62.8731 75.8002C74.3564 68.5267 82.0002 55.7171 82.0002 41.147C82.0027 35.432 80.8241 29.9872 78.7007 25.0398ZM77.6102 47.0041H69.4321L72.7879 50.3618C73.3604 50.9343 73.3604 51.8602 72.7879 52.4326C72.5027 52.7179 72.1279 52.8618 71.7525 52.8618C71.3778 52.8618 71.003 52.7179 70.7178 52.4326L64.862 46.5768C64.7256 46.4417 64.6186 46.2796 64.5441 46.0995C64.3959 45.7422 64.3959 45.3381 64.5441 44.9809C64.6186 44.8007 64.7256 44.6393 64.862 44.5035L70.7178 38.6477C71.2883 38.0746 72.2168 38.0746 72.7879 38.6477C73.3604 39.2201 73.3604 40.1454 72.7879 40.7179L69.4321 44.0756H77.6102C78.4185 44.0756 79.0742 44.73 79.0742 45.5402C79.0742 46.3497 78.4185 47.0041 77.6102 47.0041Z" fill="#49BA49"/>
<path d="M43.3393 82.0758L41.002 75.0632L38.6653 82.0758C39.4386 82.1196 40.2175 82.1478 41.002 82.1478C41.7871 82.1478 42.566 82.1196 43.3393 82.0758Z" fill="#49BA49"/>
<path d="M19.1284 75.8002C18.8237 70.7946 19.3173 64.0342 22.2971 56.3922C18.5647 51.9271 18.91 47.7743 19.0377 46.8859C19.0608 44.2351 19.8635 41.3228 21.4244 38.2229C23.1549 34.7857 22.9078 30.7448 20.7944 27.9245C18.6892 25.1186 16.1335 25.0398 16.1091 25.0398H3.30078C1.17867 29.9872 0 35.432 0 41.147C0.00125124 55.7171 7.64509 68.5267 19.1284 75.8002ZM10.2514 52.8618C9.87669 52.8618 9.50194 52.7179 9.21666 52.4326C8.64359 51.8602 8.64359 50.9343 9.21666 50.3618L12.5737 47.0041H4.39437C3.58606 47.0041 2.92979 46.3497 2.92979 45.5402C2.92979 44.73 3.58606 44.0756 4.39437 44.0756H12.5737L9.21666 40.7179C8.64359 40.1454 8.64359 39.2201 9.21666 38.6477C9.78722 38.0746 10.7156 38.0746 11.2868 38.6477L17.1427 44.5035C17.279 44.638 17.386 44.8007 17.4605 44.9809C17.6081 45.3381 17.6081 45.7422 17.4605 46.0995C17.386 46.2796 17.279 46.4404 17.1427 46.5768L11.2868 52.4326C11.0016 52.7179 10.6268 52.8618 10.2514 52.8618Z" fill="#49BA49"/>
</g>
<defs>
<clipPath id="clip0">
<rect width="82" height="82" fill="white"/>
</clipPath>
</defs>
</svg>
