<svg width="86" height="86" viewBox="0 0 86 86" fill="none" xmlns="http://www.w3.org/2000/svg">
<g clip-path="url(#clip0)">
<path d="M33.3483 0.864136H43.6875C43.6875 0.864136 42.4154 26.041 52.9939 18.9585C57.8346 15.7232 66.1141 9.97448 76.2598 18.7007C84.2363 25.5594 91.3377 36.8194 80.3951 60.5764C74.6872 72.9633 55.7356 92.5273 26.8837 71.1763C22.4942 67.9285 10.8581 60.0615 10.0824 85.1358H0.000473617C0.000473617 85.1358 -0.39355 55.8023 16.5441 57.9923C25.3231 59.1281 45.6079 64.4873 48.8586 43.5144C49.5312 39.1746 51.4248 33.8175 41.1035 27.7469C36.708 25.1629 33.0877 22.836 33.3483 0.864136Z" fill="#49BA49"/>
</g>
<defs>
<clipPath id="clip0">
<rect width="86" height="86" fill="white"/>
</clipPath>
</defs>
</svg>
