<svg width="94" height="94" viewBox="0 0 94 94" fill="none" xmlns="http://www.w3.org/2000/svg">
<g clip-path="url(#clip0)">
<path d="M50.9116 69.2771C62.953 69.2771 72.7503 59.483 72.7503 47.4417C72.7503 35.4003 62.9534 25.6016 50.9116 25.6016C38.8709 25.6016 29.0746 35.3987 29.0746 47.4417C29.0746 59.483 38.8693 69.2771 50.9116 69.2771Z" fill="#49BA49"/>
<path d="M50.9116 75.1388C66.2104 75.1388 78.6083 62.7376 78.6083 47.442C78.6083 32.1427 66.2101 19.7439 50.9116 19.7439C35.6145 19.7439 23.2147 32.1427 23.2147 47.442C23.2147 62.7373 35.6145 75.1388 50.9116 75.1388ZM50.9116 23.9874C63.8428 23.9874 74.3664 34.5111 74.3664 47.442C74.3664 60.3734 63.8431 70.8951 50.9116 70.8951C37.9802 70.8951 27.4585 60.3737 27.4585 47.442C27.4585 34.5111 37.9802 23.9874 50.9116 23.9874Z" fill="#49BA49"/>
<path d="M94 77.7155L92.3839 15.5505C92.3839 14.2119 91.2984 13.1263 89.9598 13.1263C89.6018 13.1263 89.2655 13.2084 88.9609 13.3495V13.3265C88.9609 13.3265 88.8978 13.3669 88.8077 13.4284C88.5759 13.5565 88.3676 13.714 88.1877 13.9067C86.4137 15.3628 80.7577 21.2972 80.2841 29.3192C79.5659 41.5554 85.5093 46.5109 87.5341 51.0496L85.9183 77.7143C85.9183 79.0525 88.62 80.1384 89.9582 80.1384C91.2984 80.1397 94 79.0541 94 77.7155Z" fill="#49BA49"/>
<path d="M4.23104 39.8446L8.41453 41.9343C8.89127 42.1733 9.41681 42.3476 9.96597 42.4772L8.34988 78.8412C8.34988 79.9647 11.0525 80.8738 12.3901 80.8738C13.7283 80.8738 16.4303 79.9647 16.4303 78.8412L14.8142 42.2911C15.3833 42.1121 15.9315 41.8936 16.4114 41.5999L19.5108 39.7125C21.7472 38.3481 23.4326 35.3475 23.4326 32.7276V16.4344C23.4326 15.0958 22.3467 14.0103 21.0085 14.0103C19.6709 14.0103 18.5844 15.0958 18.5844 16.4344V31.1112H17.2381V16.4344C17.2381 15.0958 16.1522 14.0103 14.8139 14.0103C13.4763 14.0103 12.3898 15.0958 12.3898 16.4344V31.1112H11.0388V16.4344C11.0388 15.0958 9.95292 14.0103 8.61467 14.0103C7.27705 14.0103 6.19054 15.0958 6.19054 16.4344V31.1112H4.84826V16.958C4.84826 15.6198 3.76237 14.5339 2.42413 14.5339C1.08651 14.5339 0 15.6198 0 16.958V32.9983C0 35.6943 1.81965 38.639 4.23104 39.8446Z" fill="#49BA49"/>
</g>
<defs>
<clipPath id="clip0">
<rect width="94" height="94" fill="white"/>
</clipPath>
</defs>
</svg>
