<svg width="21" height="21" viewBox="0 0 21 21" fill="none" xmlns="http://www.w3.org/2000/svg">
<path d="M15.2045 0H5.79508C2.59968 0 0 2.5998 0 5.79521V15.2047C0 18.4002 2.59968 20.9999 5.79508 20.9999H15.2045C18.4002 20.9999 20.9999 18.4001 20.9999 15.2047V5.79521C21 2.5998 18.4002 0 15.2045 0ZM19.1368 15.2047C19.1368 17.3728 17.3728 19.1367 15.2047 19.1367H5.79508C3.62705 19.1368 1.86321 17.3728 1.86321 15.2047V5.79521C1.86321 3.62717 3.62705 1.86321 5.79508 1.86321H15.2045C17.3727 1.86321 19.1367 3.62717 19.1367 5.79521V15.2047H19.1368Z" fill="white"/>
<path d="M10.5 5.08905C7.51626 5.08905 5.08887 7.51644 5.08887 10.5002C5.08887 13.4838 7.51626 15.9111 10.5 15.9111C13.4838 15.9111 15.9111 13.4838 15.9111 10.5002C15.9111 7.51644 13.4838 5.08905 10.5 5.08905ZM10.5 14.0477C8.54376 14.0477 6.95208 12.4563 6.95208 10.5001C6.95208 8.54369 8.54363 6.95214 10.5 6.95214C12.4564 6.95214 14.0479 8.54369 14.0479 10.5001C14.0479 12.4563 12.4563 14.0477 10.5 14.0477Z" fill="white"/>
<path d="M16.1381 3.50916C15.7791 3.50916 15.4265 3.65449 15.1729 3.90912C14.9182 4.16252 14.7717 4.51529 14.7717 4.87551C14.7717 5.23461 14.9183 5.58726 15.1729 5.84189C15.4263 6.09529 15.7791 6.24186 16.1381 6.24186C16.4983 6.24186 16.8498 6.09529 17.1045 5.84189C17.3591 5.58726 17.5044 5.23449 17.5044 4.87551C17.5044 4.51529 17.3591 4.16252 17.1045 3.90912C16.8511 3.65449 16.4983 3.50916 16.1381 3.50916Z" fill="white"/>
</svg>
