<svg width="15" height="15" viewBox="0 0 15 15" fill="none" xmlns="http://www.w3.org/2000/svg">
<g clip-path="url(#clip0)">
<path d="M11.4038 9.92311C10.9138 9.4393 10.302 9.4393 9.81506 9.92311C9.44361 10.2914 9.07217 10.6597 8.70697 11.0343C8.60709 11.1373 8.52281 11.1592 8.40108 11.0905C8.16074 10.9594 7.90479 10.8533 7.6738 10.7097C6.59694 10.0324 5.69486 9.1615 4.8958 8.18139C4.49938 7.69446 4.14667 7.17319 3.90008 6.58638C3.85014 6.46777 3.8595 6.38973 3.95627 6.29297C4.32771 5.93402 4.68979 5.56569 5.05499 5.19737C5.56377 4.68547 5.56377 4.08617 5.05186 3.57115C4.76158 3.27774 4.47129 2.99057 4.181 2.69717C3.88135 2.39752 3.58483 2.09475 3.28205 1.79822C2.792 1.32065 2.18021 1.32065 1.69328 1.80134C1.31872 2.16966 0.959763 2.54734 0.578958 2.90942C0.226244 3.2434 0.0483268 3.6523 0.0108705 4.12987C-0.0484353 4.90709 0.141968 5.64061 0.410404 6.3554C0.959763 7.83492 1.79629 9.14901 2.81073 10.3539C4.18101 11.9832 5.8166 13.2723 7.72999 14.2025C8.59148 14.6208 9.48419 14.9423 10.4549 14.9953C11.1229 15.0328 11.7035 14.8642 12.1686 14.343C12.4869 13.9871 12.8459 13.6625 13.183 13.3223C13.6824 12.8166 13.6855 12.2048 13.1892 11.7054C12.5962 11.1092 12 10.5162 11.4038 9.92311Z" fill="#AAFED6" fill-opacity="0.94"/>
<path d="M10.8079 7.43467L11.9596 7.23802C11.7786 6.17988 11.2792 5.22162 10.5207 4.46001C9.71851 3.65782 8.70407 3.15216 7.58663 2.99609L7.42432 4.15412C8.28893 4.27585 9.07551 4.66602 9.69666 5.28717C10.2835 5.87399 10.6674 6.61687 10.8079 7.43467Z" fill="#AAFED6" fill-opacity="0.94"/>
<path d="M12.6088 2.42842C11.2791 1.09872 9.59667 0.259073 7.73946 0L7.57715 1.15802C9.18153 1.38276 10.6361 2.11004 11.7847 3.25558C12.8741 4.34493 13.5889 5.72145 13.848 7.23531L14.9997 7.03866C14.697 5.28446 13.8698 3.69257 12.6088 2.42842Z" fill="#AAFED6" fill-opacity="0.94"/>
</g>
<defs>
<clipPath id="clip0">
<rect width="15" height="15" fill="white"/>
</clipPath>
</defs>
</svg>
