<svg width="22" height="22" viewBox="0 0 22 22" fill="none" xmlns="http://www.w3.org/2000/svg">
<path d="M22 4.17922C21.1902 4.53801 20.3214 4.78134 19.4086 4.88997C20.3406 4.33181 21.0541 3.44649 21.3923 2.39481C20.518 2.9117 19.5529 3.28703 18.5246 3.49049C17.7011 2.61204 16.5298 2.06488 15.2307 2.06488C12.7383 2.06488 10.7174 4.08575 10.7174 6.57678C10.7174 6.93008 10.7573 7.27514 10.8343 7.6051C7.084 7.41674 3.75851 5.61996 1.53281 2.8897C1.14375 3.55509 0.922418 4.33041 0.922418 5.15804C0.922418 6.72388 1.71977 8.1055 2.92956 8.91382C2.18993 8.88908 1.49431 8.68562 0.88532 8.34743V8.40379C0.88532 10.5896 2.44153 12.4139 4.505 12.8291C4.12694 12.9308 3.72828 12.9872 3.31585 12.9872C3.02442 12.9872 2.74259 12.9583 2.46626 12.9033C3.04089 14.6974 4.7071 16.002 6.68124 16.0378C5.13739 17.2475 3.19075 17.9665 1.07642 17.9665C0.712124 17.9665 0.353294 17.9445 0 17.9047C1.99751 19.1873 4.36894 19.9352 6.9177 19.9352C15.2198 19.9352 19.7578 13.0587 19.7578 7.09508L19.7427 6.51082C20.6293 5.87839 21.3964 5.0838 22 4.17922Z" fill="white"/>
</svg>
